/* XPM */
static char *cat_down[] = {
/* columns rows colors chars-per-pixel */
"32 32 15 1 ",
"  c #ACD62A",
". c #A5CE2A",
"X c #B9E236",
"o c #9FC529",
"O c #B3DD35",
"+ c gray3",
"@ c #423934",
"# c #5A4E44",
"$ c #477238",
"% c #60B045",
"& c #75921E",
"* c #7E9A26",
"= c #718C1E",
"- c #7A9625",
"; c #6D861D",
/* pixels */
" .  .  X  ..  .  o .    O      .",
"  .. .  O X   ++.  . o  .X X .. ",
"...  . .   o +@@+ .  .  .   .  .",
".  O  . o .o +#@+.X.  .   . o X ",
" XO  .    .  +#@+   OX . o.. .OX",
" X   . XX   X+#@+o . O X o. o  O",
"   .o . OX X +#@+o.   O..   .  .",
" o  o. . O.X.+@@+ ..     .   .. ",
". . .  ....  +@@+.  o. . O  X  .",
" . .OX   .   +++++ .o     X..   ",
".o.  OX X  .+@@@@@+  . .     .. ",
".o    OX  .+@#####@+   . . .o.  ",
" .. . .  .+@#####@@@+.. .o.     ",
" .  . .o  +@+++++++@+  O  .  X .",
"  X  X o. ++@@@@@@@++.  OX  XO  ",
".  X X   O+@@####@@@+o   OX O  .",
" . .   .  +@#######@+o . .O . o ",
" .   o.   +#########+.       .  ",
"   X   .  +#$$###$$#+   .  .   o",
" XO  . o ++#%$###$%#++X  .o. O  ",
"XO  .. o o+@@@++@##@+X. . o   X ",
"O      . ++@@#####@@++ . . .. O ",
" . .  X  .+@@@@@@@@@+.  o.  o  .",
".   . O X ++@#####@++        .  ",
" o o.  .. &++####+++&X .  X   . ",
"  .o  .  .&&+++++++&& OX XO  .o ",
" .      . *&+@++@@+&=. O O..   .",
"  O  X X .-*+@++@@+=&o   ..  .  ",
" X.  OX  .&-&+==++&&&   . o  X .",
"XO  . O... &=&&;&&-*  X   o.  X ",
"O .   .  o  &&=&=&&O X  o.  . O ",
"   . .. .  X .. . . . ..  .  .. "
};
