/* XPM */
static char *cat_left[] = {
/* columns rows colors chars-per-pixel */
"32 32 15 1 ",
"  c #ACD62A",
". c #A5CE2A",
"X c #B9E236",
"o c #9FC529",
"O c #B3DD35",
"+ c gray3",
"@ c #423934",
"# c #5A4E44",
"$ c #477238",
"% c #60B045",
"& c #7E9A26",
"* c #75921E",
"= c #718C1E",
"- c #6D861D",
"; c #7A9625",
/* pixels */
" .  .  X  ..  .  o .    O      .",
"  .. .  O X     .  . o  .X X .. ",
"...  . .   o . X  .  .  .   .  .",
".  O  . o .o . O .X.  .   . o X ",
" XO  .    .     .   OX . o.. .OX",
" X   . XX   X    o . O X o. o  O",
"   .o . OX X o. .o.   O.+   .  .",
" o  o. . O.X.o .  ..   +@+   .. ",
". . .  ....  ..o .  o. +@+  X  .",
" . .OX   .    ..   .o  +#+X..   ",
".o.  OX X++. .   X   . +#+   .. ",
".o  ++OX+##+  .   X    +#+ .o.  ",
" ..+##++@@@#+  X. O X..+#+.     ",
" . +#@@@@@@#+X.O.  .   +#+.  X .",
"  X+@@####@@#    . . .+@@+  XO  ",
".  +@#######@++++++++++@@+X O  .",
" . +#########@@#####@@@@+.O . o ",
" .+@###$$###@#########@@+    .  ",
"  +@###$%###+##########@+  .   o",
" X+@########+##########+ .o. O  ",
"XO +@######@+##########+. o   X ",
"O   ++@##@++@@###@####@+ . .. O ",
" . .  +++++#@@@@@@@##@++o.  o  .",
".   . O &+###@@@++@@@@+*     .  ",
" o o.  .=+#@#@@+*+@##@+=  X   . ",
"  .o  . *+#@#@+*=-+###+& XO  .o ",
" .      =+#@#+**=*+@##+; O..   .",
"  O  X X*++@@+&***+@@@+* ..  .  ",
" X.  OX  =*++&=. &*+++**. o  X .",
"XO  . O...**=**o  ;&**&   o.  X ",
"O .   .  o    . .  O X  o.  . O ",
"   . .. .  X .. . . . ..  .  .. "
};
