/* XPM */
static char *cat_up[] = {
/* columns rows colors chars-per-pixel */
"32 32 12 1 ",
"  c #ACD62A",
". c #A5CE2A",
"X c #B9E236",
"o c #9FC529",
"O c #B3DD35",
"+ c gray3",
"@ c #5A4E44",
"# c #423934",
"$ c #718C1E",
"% c #7A9625",
"& c #75921E",
"* c #7E9A26",
/* pixels */
" .  .  X  ..  .  o .    O      .",
"  .. .  O X     .  . o  .X X .. ",
"...  . .   o . X  .  .  .   .  .",
".  O  . o .o . O .X.  .   . o X ",
" XO  .    .+    .  +OX . o.. .OX",
" X   . XX +@+    o+@+O X o. o  O",
"   .o . OX+@@+++++@@+ O..   .  .",
" o  o. . O+#@@@@@@@#+    .   .. ",
". . .  ...+@#@@@@@#@+. . O  X  .",
" . .OX   ++@##@+@@#@++    X..   ",
".o.  OX X +###@+##@#+. .     .. ",
".o    OX ++###@+@#@@++ . . .o.  ",
" .. . .  .+#@#@+@@@@+.. .o.     ",
" .  . .o +#@@+@+@@@@@+ O  .  X .",
"  X  X o.+#@@+@##@@@@+  OX  XO  ",
".  X X   +##@+@##@@#@+   OX O  .",
" . .   . +@#@+#@@@@#@+ . .O . o ",
" .   o.  +@#@##@@@@#@+       .  ",
"   X   . +@###@@@@##@+  .  .   o",
" XO  . o +####@@@####+X  .o. O  ",
"XO  .. o o+##@@@@##@+X. . o   X ",
"O      .  +##@@@@##@+  . . .. O ",
" . .  X  .+###++#@@#+.  o.  o  .",
".   . O X $+@+%$+@@+&        .  ",
" o o.  .. &+@+&&+@@+&X .  X   . ",
"  .o  .  .&+#+&&+##+& OX XO  .o ",
" .      . *&++&&+++&$. O O..   .",
"  O  X X .O*&&*&&&&$ o   ..  .  ",
" X.  OX  . O&*$$&*&     . o  X .",
"XO  . O...  .  o  OX  X   o.  X ",
"O .   .  o    . .  O X  o.  . O ",
"   . .. .  X .. . . . ..  .  .. "
};
