/* XPM */
static char *exitcatleft[] = {
/* columns rows colors chars-per-pixel */
"32 32 59 1 ",
"  c #ACD62A",
". c #A5CE2A",
"X c #B9E236",
"o c #9FC529",
"O c #B3DD35",
"+ c #604F15",
"@ c #745F1F",
"# c #AD9653",
"$ c #9D8546",
"% c #89702A",
"& c gray3",
"* c #CCB065",
"= c #483A0C",
"- c #423934",
"; c #5A4E44",
": c #7D6A32",
"> c #477238",
", c #60B045",
"< c #A9D229",
"1 c #B3DB34",
"2 c #ABD52A",
"3 c #8EA721",
"4 c #758119",
"5 c #ADD633",
"6 c #ABD42A",
"7 c #A0853C",
"8 c #707D19",
"9 c #7D901E",
"0 c #A3CB28",
"q c #A7D029",
"w c #A4CD2A",
"e c #5E4D1E",
"r c #42370F",
"t c #80961E",
"y c #9DC326",
"u c #A2C928",
"i c #9FC729",
"p c #89A221",
"a c #504116",
"s c #322809",
"d c #82981F",
"f c #AAD032",
"g c #A3CA28",
"h c #A7CF29",
"j c #75831B",
"k c #5F6E1B",
"l c #9FC527",
"z c #AED533",
"x c #ADD533",
"c c #A9D329",
"v c #5D6E18",
"b c #759024",
"n c #B2DB35",
"m c #75921E",
"M c #65751C",
"N c #525B13",
"B c #718C1E",
"V c #7E9A26",
"C c #7A9625",
/* pixels */
" .  .  X  ..  .  o .    O      .",
"  .. .  O X     .  . o  .X X .. ",
"...  . .   o . X  .  .  .   .  .",
".  O  . o .o . O .X.  .   . o X ",
" XO  .    .     .   OX . o.. .OX",
" X   . XX   ++++ o . O X o. o  O",
"   .o . OX+@##$%++.   O.&   .  .",
" o  o. . @#***#$%@==   &-&   .. ",
". . .  .@#**##$%%@+==. &-&  X  .",
" . .OX @$***#$%%@@++===&;&X..   ",
".o.  O@%$&&#$$%%@+++===&;&   .. ",
".o  &&%%&;;&%%%@+==++==&;&+.o.  ",
" ..&;;&&---;&@@+++===:%&;&++    ",
" . &;------;&+@@+++%$::&;&+++X .",
"  X&--;;;;--;++++@%$$$&--&@+=O  ",
". @&-;;;;;;;-&&&&&&&&&&--&@==  .",
" .@&;;;;;;;;;--;;;;;----&:+===o ",
" @&-;;;>>;;;-;;;;;;;;;--&+++==  ",
" @&-;;;>,;;;&;;;;;;;;;;-&+=+== o",
" @&-;;;;;;;;&;;;;;;;;;;&@+=+==< ",
"X+@&-;;;;;;-&;;;;;;;;;;&@+=+==12",
"O3+%&&-;;-&&--;;;-;;;;-&@====456",
" .3+%7&&&&&;-------;;-&&+==890qw",
".  3+@77e&;;;---&&----&r==tyui6 ",
" o op++@a&;-;--&e&-;;-&s=dfgh6. ",
"  .o 3j+r&;-;-&rar&;;;&klzxc .o ",
" .      v&;-;&rrrr&-;;&bqn..   .",
"  O  X Xm&&--&MNNN&---&m ..  .  ",
" X.  OX  Bm&&VB. Vm&&&mm. o  X .",
"XO  . O...mmBmmo  CVmmV   o.  X ",
"O .   .  o    . .  O X  o.  . O ",
"   . .. .  X .. . . . ..  .  .. "
};
