/* XPM */
static char *exitcatup[] = {
/* columns rows colors chars-per-pixel */
"32 32 66 1 ",
"  c #ACD62A",
". c #A5CE2A",
"X c #B9E236",
"o c #9FC529",
"O c #B3DD35",
"+ c gray3",
"@ c #5A4E44",
"# c #604F15",
"$ c #745F1F",
"% c #423934",
"& c #AD9653",
"* c #9D8546",
"= c #483A0C",
"- c #89702A",
"; c #CCB065",
": c #7D6A32",
"> c #A0853C",
", c #A9D229",
"< c #B3DB34",
"1 c #ABD52A",
"2 c #8EA721",
"3 c #758119",
"4 c #ADD633",
"5 c #ABD42A",
"6 c #707D19",
"7 c #7D901E",
"8 c #A3CB28",
"9 c #A7D029",
"0 c #A4CD2A",
"q c #5E4D1E",
"w c #42370F",
"e c #504116",
"r c #80961E",
"t c #9DC326",
"y c #A2C928",
"u c #9FC729",
"i c #89A221",
"p c #322809",
"a c #82981F",
"s c #AAD032",
"d c #A3CA28",
"f c #A7CF29",
"g c #75831B",
"h c #74801E",
"j c #8BA126",
"k c #9FC527",
"l c #AED533",
"z c #ADD533",
"x c #A9D329",
"c c #88A121",
"v c #8AA320",
"b c #555D16",
"n c #4D5512",
"m c #81981F",
"M c #ABD333",
"N c #B2DB35",
"B c #7E9A26",
"V c #74901D",
"C c #607118",
"Z c #65751C",
"A c #525B13",
"S c #5F7017",
"D c #6F8A1D",
"F c #9DC329",
"G c #75921E",
"H c #718C1E",
/* pixels */
" .  .  X  ..  .  o .    O      .",
"  .. .  O X     .  . o  .X X .. ",
"...  . .   o . X  .  .  .   .  .",
".  O  . o .o . O .X.  .   . o X ",
" XO  .    .+    .  +OX . o.. .OX",
" X   . XX +@+### o+@+O X o. o  O",
"   .o . OX+@@+++++@@+ O..   .  .",
" o  o. . $+%@@@@@@@%+    .   .. ",
". . .  .$&+@%@@@@@%@+. . O  X  .",
" . .OX $*++@%%@+@@%@++=   X..   ",
".o.  O$-*;+%%%@+%%@%+===##   .. ",
".o   $---++%%%@+@%@@++=$###.o.  ",
" .. $**-$-+%@%@+@@@@+:--$###    ",
" . $&&&*-+%@@+@+@@@@@+:--$###X .",
"  X$&;;&*+%@@+@%%@@@@+:--$$#=O  ",
". $&;;;;&+%%@+@%%@@%@+::--$==  .",
" .$&;;;;;+@%@+%@@@@%@+*:::#===o ",
" $-&;;;;;+@%@%%@@@@%@+*::###==  ",
" $->&;;;;+@%%%@@@@%%@+*:##=#== o",
" $->&&;;;+%%%%@@@%%%%+:#$#=#==, ",
"X#$>&&&;;;+%%@@@@%%@+:$$$#=#==<1",
"O2#-&>&&>-+%%@@@@%%@+#$$$====345",
" .2#->&>>-+%%%++%@@%+=#$#==67890",
".  2#$>>--q+@+we+@@+w=##==rtyu5 ",
" o oi##$$$e+@+we+@@+p====asdf5. ",
"  .o 2g###e+%+ww+%%+p=hjklzx .o ",
" .      cvbw++ww+++pnmdM9N..   .",
"  O  X X .OBVCZAAASDxF   ..  .  ",
" X.  OX  . OGBHHGBG     . o  X .",
"XO  . O...  .  o  OX  X   o.  X ",
"O .   .  o    . .  O X  o.  . O ",
"   . .. .  X .. . . . ..  .  .. "
};
