/* XPM */
static char *exitcatdown[] = {
/* columns rows colors chars-per-pixel */
"32 32 65 1 ",
"  c #ACD62A",
". c #A5CE2A",
"X c #B9E236",
"o c #9FC529",
"O c #B3DD35",
"+ c gray3",
"@ c #423934",
"# c #5A4E44",
"$ c #604F15",
"% c #745F1F",
"& c #AD9653",
"* c #CCB065",
"= c #483A0C",
"- c #9D8546",
"; c #89702A",
": c #7D6A32",
"> c #A0853C",
", c #477238",
"< c #60B045",
"1 c #A9D229",
"2 c #B3DB34",
"3 c #ABD52A",
"4 c #8EA721",
"5 c #758119",
"6 c #ADD633",
"7 c #ABD42A",
"8 c #707D19",
"9 c #7D901E",
"0 c #A3CB28",
"q c #A7D029",
"w c #A4CD2A",
"e c #80961E",
"r c #9DC326",
"t c #A2C928",
"y c #9FC729",
"u c #89A221",
"i c #504116",
"p c #322809",
"a c #82981F",
"s c #AAD032",
"d c #A3CA28",
"f c #A7CF29",
"g c #75831B",
"h c #74801E",
"j c #8BA126",
"k c #9FC527",
"l c #AED533",
"z c #ADD533",
"x c #A9D329",
"c c #88A121",
"v c #8AA320",
"b c #555D16",
"n c #42370F",
"m c #4D5512",
"M c #81981F",
"N c #ABD333",
"B c #B2DB35",
"V c #7A9625",
"C c #7E9A26",
"Z c #6F8A1D",
"A c #73901D",
"S c #9DC329",
"D c #75921E",
"F c #718C1E",
"G c #6D861D",
/* pixels */
" .  .  X  ..  .  o .    O      .",
"  .. .  O X   ++.  . o  .X X .. ",
"...  . .   o +@@+ .  .  .   .  .",
".  O  . o .o +#@+.X.  .   . o X ",
" XO  .    .  +#@+   OX . o.. .OX",
" X   . XX   $+#@+o . O X o. o  O",
"   .o . OX$%&+#@+$.   O..   .  .",
" o  o. . %&**+@@+%==     .   .. ",
". . .  .%&**&+@@+%$==. . O  X  .",
" . .OX %-***&+++++$$===   X..   ",
".o.  O%;-**&+@@@@@+$====$$   .. ",
".o   %;;;&&+@#####@+$==%$$$.o.  ",
" .. %--;%;+@#####@@@+:;;%$$$    ",
" . %&&&-;%+@+++++++@+::;;%$$$X .",
"  X%&**&--++@@@@@@@++-:;;%%$=O  ",
". %&****&&+@@####@@@+-::;;%==  .",
" .%&******+@#######@+--:::$===o ",
" %;&*****&+#########+&-::$$$==  ",
" %;>&*****+#,,###,,#+--:$$=$== o",
" %;>&&***++#<,###,<#++:$%$=$==1 ",
"X$%>&&&***+@@@++@##@+:%%%$=$==23",
"O4$;&>&&>++@@#####@@++%%%====567",
" .4$;>&>>;+@@@@@@@@@+=$%$==890qw",
".  4$%>>;;++@#####@++=$$==erty7 ",
" o ou$$%%%i++####+++p====asdf7. ",
"  .o 4g$$$ii+++++++pp=hjklzx .o ",
" .      cvbn+@++@@+pmMdNqB..   .",
"  O  X X .VC+@++@@+ZAS   ..  .  ",
" X.  OX  .DVD+FF++DDD   . o  X .",
"XO  . O... DFDDGDDVC  X   o.  X ",
"O .   .  o  DDFDFDDO X  o.  . O ",
"   . .. .  X .. . . . ..  .  .. "
};
