/* XPM */
static char *exitcatright[] = {
/* columns rows colors chars-per-pixel */
"32 32 64 1 ",
"  c #ACD62A",
". c #A5CE2A",
"X c #B9E236",
"o c #9FC529",
"O c #B3DD35",
"+ c gray3",
"@ c #604F15",
"# c #423934",
"$ c #745F1F",
"% c #AD9653",
"& c #9D8546",
"* c #89702A",
"= c #CCB065",
"- c #483A0C",
"; c #5A4E44",
": c #477238",
"> c #60B045",
", c #A0853C",
"< c #A9D229",
"1 c #B3DB34",
"2 c #ABD52A",
"3 c #8EA721",
"4 c #758119",
"5 c #ADD633",
"6 c #ABD42A",
"7 c #6D5B2A",
"8 c #42370F",
"9 c #707D19",
"0 c #7D901E",
"q c #A3CB28",
"w c #A7D029",
"e c #A4CD2A",
"r c #80961E",
"t c #9DC326",
"y c #A2C928",
"u c #9FC729",
"i c #89A221",
"p c #504116",
"a c #322809",
"s c #82981F",
"d c #AAD032",
"f c #A3CA28",
"g c #A7CF29",
"h c #75831B",
"j c #505816",
"k c #8BA126",
"l c #9FC527",
"z c #AED533",
"x c #ADD533",
"c c #A9D329",
"v c #75921E",
"b c #6F8A1C",
"n c #ABD333",
"m c #B2DB35",
"M c #7E9A26",
"N c #74901D",
"B c #607118",
"V c #94AC28",
"C c #77851A",
"Z c #525B13",
"A c #73901D",
"S c #6B851D",
"D c #718C1E",
"F c #7A9625",
/* pixels */
" .  .  X  ..  .  o .    O      .",
"  .. .  O X     .  . o  .X X .. ",
"...  . .   o . X  .  .  .   .  .",
".  O  . o .o . O .X.  .   . o X ",
" XO  .    .     .   OX . o.. .OX",
" X   .+XX   @@@@ o . O X o. o  O",
"   .o+#+OX@$%%&*@@.   O..   .  .",
" o  o+#+ $%===%&*$--     .   .. ",
". . .+;+$%==%%&**$@--. . O  X  .",
" . .O+;+&===%&**$$@@++-   X..   ",
".o.  +;+&==%&&**$@@+;;+-@++  .. ",
".o   +;+*%%&***$@-+;###++;;+o.  ",
" .. $+;+$**$$$$@@@+;######;+    ",
" . $%+##+$$$$@$$@@;##;;;;##+@X .",
"  X$%+##++++++++++#;;;;;;;#+-O  ",
". $%==+####;;;;;##;;;;;;;;;+-  .",
" .$%==+##;;;;;;;;;#;;;::;;;#+-o ",
" $*%==+#;;;;;;;;;;+;;;>:;;;#+-  ",
" $*,%==+;;;;;;;;;;+;;;;;;;;#+- o",
" $*,%%=+;;;;;;;;;;+#;;;;;;#+--< ",
"X@$,%%%+#;;;;#;;;##++#;;#++@--12",
"O3@*%,%++#;;#######;+++++----456",
" .3@*,%7+####++###;;;+8$@--90qwe",
".  3@$,7+#;;#+8+##;#;+8@--rtyu6 ",
" o oi@@p+;;;+p8p+#;#;+a--sdfg6. ",
"  .o 3h8+;;#+888p+;#;+jklzxc .o ",
" .     v+###+8888+##++bnwm..   .",
"  O  X Mv+++NBVCZZ++AS   ..  .  ",
" X.  OX vDvFvX..vMvvv   . o  X .",
"XO  . O...  .  o  OX  X   o.  X ",
"O .   .  o    . .  O X  o.  . O ",
"   . .. .  X .. . . . ..  .  .. "
};
