/* XPM */
static char *cat_grass[] = {
/* columns rows colors chars-per-pixel */
"32 32 60 1 ",
"  c #130E1B",
". c #16101D",
"X c #6D453D",
"o c #73463A",
"O c #75493C",
"+ c #7B4A3E",
"@ c #734740",
"# c #744A40",
"$ c #7D4D41",
"% c #804C3F",
"& c #824E41",
"* c #855243",
"= c #8B5545",
"- c #8F5846",
"; c #925645",
": c #925A46",
"> c #905848",
", c #9F634A",
"< c #A2644B",
"1 c #A6694E",
"2 c #A96C4F",
"3 c #AC7555",
"4 c #BD7E5C",
"5 c #8D6B74",
"6 c #8E6C78",
"7 c #926E73",
"8 c #906E78",
"9 c #8F7177",
"0 c #937076",
"q c #95717A",
"w c #9FC529",
"e c #A5CE2A",
"r c #ACD62A",
"t c #B3DD35",
"y c #B9E236",
"u c #BD815C",
"i c #C1835E",
"p c #C38762",
"a c #C68B65",
"s c #C88D66",
"d c #C78D68",
"f c #CA8F68",
"g c #CD936B",
"h c #D0946D",
"j c #CF9871",
"k c #D19771",
"l c #D19A72",
"z c #D69F7B",
"x c #BCA49A",
"c c #B9A3A0",
"v c #DFAD89",
"b c #C6AB97",
"n c #C6AD98",
"m c #E4B48F",
"M c #CAB3A1",
"N c #FDDDC4",
"B c #FEE0C7",
"V c #FEE1C9",
"C c #FDE7D4",
"Z c #FBE8D5",
/* pixels */
"rerrerryrreerrrrreeerrrrtrrrrrre",
"rreererrtrtrrrrrerrerwrreyryreer",
"eeerrererreerertrrerrerrerrrerre",
"errtrrerwreerertrrterrerrrerwryr",
"rytrrerrrrerrrrrerrrttrerweerety",
"ryrrreryyrrrtrrrrwrertrtrwerwrrt",
"rrrewrertt   eerewerrr...rrrerre",
"rwrrweree 555 rerreer.755 rrreer",
"erererree 7bnb        767 rryrre",
"reretyrrr 0nnn5X&*$$&&a$5 teerrr",
"ewerrtyry 7nqaaaaaaaaddd%.rrreer",
"ewrrrrtyr 0b*aNNNVBVVVVVNn eeerr",
"reerererre 0BBBBVVVVVVVVVM rrrrr",
"rerr     r.0BBBBVVVVVVVVVN5 rtre",
"rry rZZg+  oaBBB BVVVVN.fV8 ttrr",
"er XgghggX.osBBa BBVVVV.fVxb.rre",
"re.XCg+a#X 5ssss aaaaaa fs=3 ree",
"re.Xg=.rr XO-sssdaa&%&assf=+ err",
"rr Xa=.er.66aNBNNpa&&&fNBNcq rre",
"ryt.Ou.wr. @-aBNaaaaasffgg* rtrr",
"ytr.+*+  O.. &paaiu444444% rrrtr",
"trrr oO+O<+OO     %**%&%% reertr",
"rerer  +aaa211+++uuuiipap rrerre",
"errre oaaaaaasssskkllBBBf rrrerr",
"rwrwe OaaassasBBgCCNVVVkh yrrrer",
"rrewr o%sasa;sBBkkNNvVVkg trreer",
"rerrrr.+:sas;<BBNlNNjNNl teerree",
"rrtrry o;ss  +zBV.  .mma eerrerr",
"ryerry +O. tr.>: yrr.1s ererrtre",
"ytrrer +o ere.:d rty.2f reeerryr",
"trerrrerrertrrererrtrtrrwerrertr",
"rrrereererrtreerererereerrerreer"
};
