/* XPM */
static char *cat_right[] = {
/* columns rows colors chars-per-pixel */
"32 32 15 1 ",
"  c #ACD62A",
". c #A5CE2A",
"X c #B9E236",
"o c #9FC529",
"O c #B3DD35",
"+ c gray3",
"@ c #423934",
"# c #5A4E44",
"$ c #477238",
"% c #60B045",
"& c #75921E",
"* c #7A9625",
"= c #718C1E",
"- c #7E9A26",
"; c #6D861D",
/* pixels */
" .  .  X  ..  .  o .    O      .",
"  .. .  O X     .  . o  .X X .. ",
"...  . .   o . X  .  .  .   .  .",
".  O  . o .o . O .X.  .   . o X ",
" XO  .    .     .   OX . o.. .OX",
" X   .+XX   X    o . O X o. o  O",
"   .o+@+OX X o. .o.   O..   .  .",
" o  o+@+ O.X.o .  ..     .   .. ",
". . .+#+...  ..o .  o. . O  X  .",
" . .O+#+ .    ..   .++    X..   ",
".o.  +#+X  . .   X +##+. ++  .. ",
".o   +#+  .   .   +#@@@++##+o.  ",
" .. .+#+ .  O  X. +#@@@@@@#+    ",
" .  .+@@+    X.O. #@@####@@+ X .",
"  X  +@@++++++++++@#######@+XO  ",
".  X X+@@@@#####@@#########+O  .",
" . .  +@@#########@###$$###@+ o ",
" .   o+@##########+###%$###@+.  ",
"   X   +##########+########@+  o",
" XO  . +##########+@######@+ O  ",
"XO  .. +@####@###@@++@##@++   X ",
"O      ++@##@@@@@@@#+++++. .. O ",
" . .  X&+@@@@++@@@###+& o.  o  .",
".   . O&+@##@+*+@@#@#+&      .  ",
" o o.  =+###+&&&+@#@#+&.  X   . ",
"  .o  .&+##@+=&&=+#@#+*X XO  .o ",
" .     &+@@@+&&&=+@@++&O O..   .",
"  O  X -&+++&&X &&++&;   ..  .  ",
" X.  OX &=&*&X..&-&&&   . o  X .",
"XO  . O...  .  o  OX  X   o.  X ",
"O .   .  o    . .  O X  o.  . O ",
"   . .. .  X .. . . . ..  .  .. "
};
