/* XPM */
static char *pot_grass[] = {
/* columns rows colors chars-per-pixel */
"32 32 37 1 ",
"  c #690000",
". c #614B12",
"X c #725713",
"o c #725813",
"O c #6E7B1B",
"+ c #767C1B",
"@ c #8C0000",
"# c #AC0000",
"$ c #CC0000",
"% c red",
"& c #826415",
"* c #927117",
"= c #A67E0C",
"- c #FF5656",
"; c #76851B",
": c #73901D",
"> c #78951D",
", c #7A981F",
"< c #7F9E1F",
"1 c #838C1E",
"2 c #B48B1B",
"3 c #8DA022",
"4 c #8CAE22",
"5 c #8CAF24",
"6 c #96AC23",
"7 c #92B624",
"8 c #98BE25",
"9 c #C2961D",
"0 c #9FC627",
"q c #9FC529",
"w c #A5CE2A",
"e c #ACD62A",
"r c #ABD132",
"t c #B3DD35",
"y c #B9E236",
"u c #D3AD47",
"i c #FF8484",
/* pixels */
"eweeweeyeewweeweeqeweeeeteeeeeew",
"eewweweeteyeeeeeweeweqeewyeyewwe",
"wwweeweweeeqeweyeeweeweeweeeweew",
"weeteeweqewqewetewyweeweeeweqeye",
"eyteeweeeeweeeeeweeetyeweqwwewty",
"eyeeeweyyeeeyeeeeqeweteyeqweqeet",
"eeewqewetyeyeqwewqweeetwweeeweew",
"eqeeqwewetwywooooooweeeeeweeewwe",
"weweweewwwo*9*&&&*=9*.eweteeyeew",
"ewewtyeeeo*2&o.*# o&=*eeeeywweee",
"wqweetyeo9&.@i @#i#  &*.eeeeewwe",
"wqeeeety=o@@@$%#%#% - =*ewewqwee",
"ewwewewe9@ %@@@%#@$$% &=wqweeeee",
"eweewewqu #@-% $--@@i%&9eeweeyew",
"eeyeeyeq9   %$ $-% @-#2=tyeeytee",
"weeyeyee&u&$@ %$@ i% &*&etyeteew",
"eweweeew.=9.@-#@#%-#ou&.ewteweqe",
"eweeeqwe.o&=9*&&&&*99&X.4eeeewee",
"eeeyeeewo*o&*29u92=*&...,0eweeeq",
"eyteeweqo*X99oo....&&...>5qwetee",
"yteewweqo.=&&2X**.*..XX.:7qeeeye",
"teeeeeew6.=&&2X**.*..X.O4wewwete",
"eweweeyee.&XX=X**.*..X><qweeqeew",
"weeeweteye.&&X=XX*.XX.<8eeeeewee",
"eqeqweewwee3..&..X..;reweeyeeewe",
"eewqeeweeweee1....+70etyeyteewqe",
"eweeeeeeweyeeeeeweeewwetetwweeew",
"eeteeyeyewtyeeyeeeeweqeeewweewee",
"eyweetyeeweteywweyeeeeeeweqeeyew",
"yteewetwwweeweeqeetyeeyeeeqweeye",
"teweeeweeqeeeeweweeteyeeqweewete",
"eeewewweweeyewwewewewewweeweewwe"
};
