/* XPM */
static char *collectible[] = {
/* columns rows colors chars-per-pixel */
"32 32 52 1 ",
"  c #ACD62A",
". c #A5CE2A",
"X c #B9E236",
"o c #9FC529",
"O c #B3DD35",
"+ c #B9B9B9",
"@ c #EBEBED",
"# c white",
"$ c gainsboro",
"% c #66593C",
"& c #D9D9DD",
"* c #887750",
"= c #99865A",
"- c #98794E",
"; c #BBB5A8",
": c #C09B68",
"> c #A9D229",
", c #C07F37",
"< c #509C00",
"1 c #98B92C",
"2 c #356800",
"3 c #79C42A",
"4 c #85A427",
"5 c #A5CD28",
"6 c #76931E",
"7 c #97BC25",
"8 c #E9A944",
"9 c #7B991E",
"0 c #91B525",
"q c gray56",
"w c #809F1F",
"e c #A4CC28",
"r c #75921E",
"t c #8DAF22",
"y c #A2CA29",
"u c #718C1D",
"i c #87A821",
"p c #A8D129",
"a c #77951E",
"s c #8AAC22",
"d c #A1C929",
"f c #CACACA",
"g c #7D9B1E",
"h c #7B9920",
"j c #95BB26",
"k c #86A721",
"l c #9CC226",
"z c #ABD52A",
"x c #A6CE29",
"c c #9EC427",
"v c #96BB25",
"b c #93B724",
/* pixels */
" .  .  X  ..  .  o .    O      .",
"  .. .  O X     .  . o  .X X .. ",
"...  . .   o . X  .  .  .   .  .",
".  O  . o .o . O .X.  .   . o X ",
" XO  .    .     .   OX . o.. .OX",
" X   . XX   X    o . O X o. o  O",
"   .o . OX X o. .o.   O..   .  .",
" o  o. . O.++++++++++    .   .. ",
". . .  ..++@#####@@@$++. O  X  .",
" . .OX ++@############@++ X..   ",
".o.  O+@###@%%%%%%%@@###@+   .. ",
".o   +@##&%**=-==**%%@@##@+.o.  ",
" .. +@##&%=;-%:-:-:=*%%@##@+    ",
" .  +##&%*=-:%:%%:-:-=*%%%#+>X .",
"  X $##&,%**=%=-=-=-=<=**##$1O  ",
".  X$##&,,%%*%*****23=,<%%#$45 .",
" . .$##@&,,,,%%*%%<3,23,@##+67o ",
" .  +###@&,8888,,<3<33,@##@+90  ",
"   Xq$###@@@@888<3<33<2##@+qwe o",
" XO  q$####@@@@2@2<<2###@+qrtO  ",
"XO  .yq$@##############$+qui> X ",
"O     pq+$@#########@$+qqasd. O ",
" . .  X 7qq++ffffff++qqgh0  o  .",
".   . O X jqqqqqqqqqqktlz    .  ",
" o o.  ..  o.xcvbbvcxX .  X   . ",
"  .o  .  .   .  .o.   OX XO  .o ",
" .      . X     .   .. O O..   .",
"  O  X X .OX  X    . o   ..  .  ",
" X.  OX  . O X.. X      . o  X .",
"XO  . O...  .  o  OX  X   o.  X ",
"O .   .  o    . .  O X  o.  . O ",
"   . .. .  X .. . . . ..  .  .. "
};
