/* XPM */
static char *exit_grass_0[] = {
/* columns rows colors chars-per-pixel */
"32 32 56 1 ",
"  c #483A0C",
". c #604F15",
"X c #745F1F",
"o c #707C19",
"O c #707D19",
"+ c #7D6A32",
"@ c #89702A",
"# c #758119",
"$ c #75831B",
"% c #77851A",
"& c #74801E",
"* c #7C881F",
"= c #7D901E",
"- c #80961E",
"; c #81981F",
": c #82981F",
"> c #A0853C",
", c #88A121",
"< c #89A221",
"1 c #8AA320",
"2 c #8BA420",
"3 c #8CA521",
"4 c #8EA721",
"5 c #8BA126",
"6 c #94AC28",
"7 c #9DC426",
"8 c #9FC527",
"9 c #9DC329",
"0 c #9FC529",
"q c #9FC729",
"w c #A2C928",
"e c #A3CA28",
"r c #A3CB28",
"t c #A2CA29",
"y c #A7CF29",
"u c #A4CD2A",
"i c #A5CE2A",
"p c #A7D029",
"a c #A9D229",
"s c #A9D329",
"d c #AAD32A",
"f c #ABD42A",
"g c #ABD52A",
"h c #ACD62A",
"j c #AAD032",
"k c #ABD333",
"l c #ADD533",
"z c #AED533",
"x c #ADD633",
"c c #B3DB34",
"v c #B2DB35",
"b c #B3DD35",
"n c #B9E236",
"m c #9D8546",
"M c #AD9653",
"N c #CCB065",
/* pixels */
"hihhihhnhhiihhihh0hihhhhbhhhhhhi",
"hhiihihhbhnhhhhhihhih0hhinhnhiih",
"iiihhihihhh0hihnhhihhihhihhhihhi",
"ihhbhhih0hi0hihbhinihhihhhih0hnh",
"hnbhhihhhhihhhhhihhhbnhih0iihibn",
"hnhhhihnnhhh....h0hihbhnh0ih0hhb",
"hhhi0hihbn.XMMm@..ihhhbiihhhihhi",
"h0hh0ihihXMNNNMm@X  hhhhhihhhiih",
"ihihihhiXMNNMMm@@X.  ihihbhhnhhi",
"hihibnhXmNNNMm@@XX..   hhhniihhh",
"i0ihhbX@mNNMmm@@X...    ..hhhiih",
"i0hhhX@@@MMm@@@X.  ..  X...i0ihh",
"hiihXmm@X@@XXXX...   +@@X...hhhh",
"hihXMMMm@XXXX.XX...@m++@@X...nhi",
"hhnXMNNMmmXX.....X@mmm+@@XX. bhh",
"ihXMNNNNMMmXX+..+mmMmm++@@X  hhi",
"hiXMNNNNNNMMmm+.+mMMMmm+++.   0h",
"hX@MNNNNNMNMMmm+.+mMmMm++...  hh",
"hX@>MNNNNNMNMMMm++mMMmm+.. .  h0",
"hX@>MMNNNNNMMMmm+++mmm+.X. .  ah",
"n.X>MMMNNNMmm+++@+++++XXX. .  cg",
"b3.@M>MM>@++++.X@X....XXX    #lg",
"hi4.@>M>>@@@@X.X@.. . .X.  O=rpi",
"ihh4.X>>@@@@XX.X@.. . ..  -7w0gg",
"hwh0,..XXXXXXX.X@.       :jrihih",
"hhi0h3$...XXX...X.    O5wllahiwh",
"hihhhhhh,,*.......  O:ekiciihhai",
"hhbhhnhnhibng36%%%5wdwhhhiighihh",
"hnihhbnhhihbhniignhhhhhhihwhhnhi",
"nbhhihbiiihhihh0hhbnhhnhhh9ihhnh",
"bhihhhihh0hhhhihihhbhnhh9ihhihbh",
"hhhihiihihhnhiihihihihiihhihhiih"
};
