/* XPM */
static char *exit_open_grass[] = {
/* columns rows colors chars-per-pixel */
"32 32 21 1 ",
"  c #1F1B0E",
". c #38311A",
"X c #4E4117",
"o c #645420",
"O c #766329",
"+ c #897233",
"@ c #849025",
"# c #889425",
"$ c #8DA326",
"% c #92AA27",
"& c #97AF27",
"* c #9BB42F",
"= c #A0B82F",
"- c #9FC529",
"; c #A5CE2A",
": c #ACD62A",
"> c #B3DD35",
", c #B9E236",
"< c #9D8543",
"1 c #9B854C",
"2 c #A99458",
/* pixels */
":;::;::,::;;::;::-:;::::>::::::;",
"::;;:;::>:,:::::;::;:-::;,:,:;;:",
";;;::;:;:::-:;:,::;::;::;:::;::;",
";::>::;:-:;$#o121+o@&:;:::;:-:,:",
":,>::;:::&++Oo+21oO+<2#%:-;;:;>,",
":,:::;:=+o1+Oo+2+XO<2<oO#$;:-::>",
":::;-&+o+o1++XO1OXO<22o+2<&:;::;",
":-::$OoXOo+++XO+oXO+<2o<2O2&:;;:",
";:;:oXXXooO+OXoOoXoO+2X<<O22=::;",
":;:XooXXoOoOoXXoXo+oX+o<2o22+&::",
";-%XXoXXXOXo+oXXX++o+XX+<X2<O@;:",
";-X.XoX.oOoo+OXXoO+o<oX++o2<OO::",
":%...XX.oOoO+OXoOoO+<Oo+OX<+o+&:",
":X..X.X.XOoO+OoXO+o++OX<+X+<o+O;",
":....o...oXOOOoXoOX+<OX<<X<<o<O:",
";...X.X.X.oXOoo.ooo++oo<+X+<O+O;",
":....X...o.XOoXXXoXO+oX<+XO<O<O:",
":X. X.X.X.X.oXX.XXXOOoX+OXO+O<O:",
":o...X...X.X.X. X.XoXX.OXXoOO<O-",
":=. ... ....... ...X...XXoXOO+&:",
",>X .X   . . .   . . ...X.XoOO,:",
">:&. .. . . . .   . . . ...XO#>:",
":;:X .   . .       . . . ...o::;",
";::&X . .             . .. X&;::",
":-:-%X                   .X&::;:",
"::;-:&X.                .X*::;-:",
":;:::::#X.            .X#*;;:::;",
"::>::,:,&@X.        .X#&:;;::;::",
":,;::>,::;:*#XXXXXX#&&::;:-::,:;",
",>::;:>;;;::;::-::>,::,:::-;::,:",
">:;:::;::-::::;:;::>:,::-;::;:>:",
":::;:;;:;::,:;;:;:;:;:;;::;::;;:"
};
