/* XPM */
static char *exit_cat_grass[] = {
/* columns rows colors chars-per-pixel */
"32 32 75 1 ",
"  c #130E1B",
". c #16101D",
"X c #483A0C",
"o c #604F15",
"O c #745F1F",
"+ c #707D19",
"@ c #6D453D",
"# c #73463A",
"$ c #75493C",
"% c #7B4A3E",
"& c #734740",
"* c #744A40",
"= c #7D4D41",
"- c #804C3F",
"; c #89702A",
": c #824E41",
"> c #855243",
", c #8B5545",
"< c #8F5846",
"1 c #925645",
"2 c #925A46",
"3 c #905848",
"4 c #9F634A",
"5 c #A2644B",
"6 c #A6694E",
"7 c #A96C4F",
"8 c #AC7555",
"9 c #BD7E5C",
"0 c #8D6B74",
"q c #8E6C78",
"w c #926E73",
"e c #906E78",
"r c #8F7177",
"t c #937076",
"y c #95717A",
"u c #758119",
"i c #7D901E",
"p c #80961E",
"a c #8DA621",
"s c #9DC426",
"d c #9FC529",
"f c #A5CE2A",
"g c #A7D029",
"h c #ACD62A",
"j c #ACD433",
"k c #B3DD35",
"l c #B9E236",
"z c #9D8546",
"x c #BD815C",
"c c #AD9653",
"v c #C1835E",
"b c #C38762",
"n c #C68B65",
"m c #C88D66",
"M c #C78D68",
"N c #CA8F68",
"B c #CD936B",
"V c #D0946D",
"C c #CF9871",
"Z c #D19771",
"A c #D19A72",
"S c #D69F7B",
"D c #CCB065",
"F c #BCA49A",
"G c #B9A3A0",
"H c #DFAD89",
"J c #C6AB97",
"K c #C6AD98",
"L c #E4B48F",
"P c #CAB3A1",
"I c #FDDDC4",
"U c #FEE0C7",
"Y c #FEE1C9",
"T c #FDE7D4",
"R c #FBE8D5",
/* pixels */
"hfhhfhhlhhffhhfhhfgfhhhhkhhhhhhf",
"hhffhfhhkhlhhhhhfhhfhfhhfkhlhffh",
"fffhhfhfhhhdhfhlhhfhhfhhfhhhfhhf",
"fhhkhhfhdhfdhfhkhflfhhfhhhfhfhlh",
"hlkhhfhhhhfhhhhgfhhhklhfhdffhfkk",
"hlhhhfhllhhhoooogfhfhkhkhffhdhhk",
"hhhfdhfhkl   cz;oofhhh   hhhfhhf",
"hdhhdfhgh 000 cz;OXXh e00 hhhffh",
"fhfhfhhfO wJJJ        w00 hhlhhf",
"hfhfklhOz tJJJq@>>==::n=0 kfghhh",
"fdfhhkO;z wJynnnnnnnnnMM- hhhffh",
"fdhhhO;;;.tK>nIUYIUYYYYYIP fffhh",
"hffhOzz;O; tIUUUYYYYYYYYYP ohhhh",
"hfhO     O.tUUUUYYYIYYYYYI0 okhf",
"hhl cRRN%  #nUUU YYYYYY NY0 Xkhh",
"gh.@BCBBB@.#mUUm YYYYYY BYGJ hhf",
"hg.@TB%m*@ qnmmm nnnnnn Nm,8 Xfg",
"hO.@V,.DD @$<mmnMnn::-nmNm,- Xhh",
"hO @n>.DD.qqnUIUInn:::NIUYGe Xhf",
"hO;.%x DD  $<nUInbnnnmNNNB> XXgg",
"loO.%>%  $.. :bnbvxxx9999: oXXkh",
"kao; #$%%4%$$     >-:-:-: XXX+hh",
"hfao;  %nnn776=%%xxxvvbnn X+ufgf",
"fhhao #nnnnnnnmnmAAAAIUYN psffhh",
"hshda #nnmmmnmYUCIIITYIZV jfghfh",
"hhgdh #>mnnn1mIUCZTIHYYZV jghffh",
"hghhhh #2MMn15UYYAIIVYIA jffhhgf",
"hhkhhl %1nm  %SYY    LLM ffhhfhh",
"hlfhhk %$  kh 22.lhh 6N fhfhhkhf",
"lkhhfh %$ hhf.2M jkl.7N hhdfhhlh",
"khfhhhfhhfhhhhfhfhhkhkhhdfhhfhkh",
"hhhfhffhfhhlhffhfhfhfhffhhfhhffh"
};
