/* XPM */
static char *wall[] = {
/* columns rows colors chars-per-pixel */
"32 32 10 1 ",
"  c #ACD62A",
". c #A5CE2A",
"X c #B9E236",
"o c #9FC529",
"O c #B3DD35",
"+ c #141B1B",
"@ c #E49865",
"# c #E46D3A",
"$ c #965746",
"% c #D2B37D",
/* pixels */
" .  .  X  ..  .  o .    O      .",
"  .. .  O X     .  . o  .X X .. ",
"...  . .   o . X  .  .  .   .  .",
".  O  . o .o . O .X.  .   . o X ",
" XO  .    .     .   OX . o.. .OX",
" X   . XX   X    o . O X o. o  O",
"   .o . +++++++++++++++..   .  .",
" o  o.++@@@@@@@@@@@@@@@++.   .. ",
". . .+@@@@@##@@@####@@@@@+  X  .",
" . .+@@@@##@@@@@@@@@##@@@@+..   ",
".o.+@@@@#@@@@@@@####@@#@@@+  .. ",
".o +@#@#@@#@@@@@@@@@#@@@@@#+o.  ",
" ..+@#@#@@#@@@@@@@@@#@@@@@#+    ",
" .+$@#@@#@@##@@@@@##@@@@@@#+ X .",
" +$$@@#@@##@@@@@@@@@@@@@@@##+O  ",
".$$$#@@@@@@#########@@@@@####+ .",
" $$+$#@@@@@@@@@@@@@@@@@%######+ ",
" . +$$##@@@@@@@@@@@@@%%######## ",
"   +$$$$####%%@%%%%%%#####$.   o",
" XO+#$$$$$$$#########$#####$ O  ",
"XO +##$$$$$$$$$$$$$$$$$#####+ X ",
"O +$##$$$$$$$$$$$$$$$$$$#####+O ",
" +#$$$$$$$$$#####$$$$$$$$$#### .",
".$$#$$$$$$$#######$$$$$$$$$$$$  ",
" $$$$  $$$$$$$$$$$$$$$$$$ X   . ",
"  .o  .  $$+#####$$$$ OX XO  .o ",
" .      . X +##$$$  .. O O..   .",
"  O  X X .OX+$$$$  . o   ..  .  ",
" X.  OX  . O+$$$ X      . o  X .",
"XO  . O...  .  o  OX  X   o.  X ",
"O .   .  o    . .  O X  o.  . O ",
"   . .. .  X .. . . . ..  .  .. "
};
